# xmcd CD database file
#
# Track frame offsets:
#	150
#	17550
#	39299
#	55551
#	75100
#	87044
#	100012
#	111940
#	124066
#	139147
#	158587
#	177129
#	198696
#	215592
#	232669
#
# Disc length: 3327 seconds
#
# Revision: 0
# Processed by: cddbd v1.5.2PL0 Copyright (c) Steve Scherf et al.
# Submitted via: CDex 1.51
#
DISCID=ab0cfd0f
DTITLE=Kenny Rogers - Greatest Love Songs
DYEAR=2007
DGENRE=Country
TTITLE0=Endless Love
TTITLE1=Have I Told You Lately That I Love You
TTITLE2=Evergreen
TTITLE3=She Believes In Me
TTITLE4=Always
TTITLE5=As Time Goes By
TTITLE6=Love Is A Many Splendored Thing
TTITLE7=It Had To Be you
TTITLE8=Misty
TTITLE9=I Only Have Eyes For You
TTITLE10=My Funny Valentine
TTITLE11=Always and Forever
TTITLE12=Stardust
TTITLE13=When A Man Loves A Woman
TTITLE14=You Decorated My Life
EXTD=YEAR: 2007
EXTT0=
EXTT1=
EXTT2=
EXTT3=
EXTT4=
EXTT5=
EXTT6=
EXTT7=
EXTT8=
EXTT9=
EXTT10=
EXTT11=
EXTT12=
EXTT13=
EXTT14=
PLAYORDER=
